<?xml version="1.0" encoding="iso-8859-1"?>
<!-- Generator: Adobe Illustrator 19.0.0, SVG Export Plug-In . SVG Version: 6.00 Build 0)  -->
<svg version="1.1" id="Layer_1" xmlns="http://www.w3.org/2000/svg" xmlns:xlink="http://www.w3.org/1999/xlink" x="0px" y="0px"
	 viewBox="0 0 512 512" style="enable-background:new 0 0 512 512;" xml:space="preserve">
<path style="fill:#F23051;" d="M255.999,127.997v16v351.991c0,6.25,3.625,11.938,9.313,14.531
	c5.594,2.625,12.375,1.719,17.094-2.375l101.591-87.092l101.59,87.092c2.938,2.531,6.656,3.844,10.406,3.844
	c2.281,0,4.563-0.469,6.688-1.469c5.688-2.594,9.313-8.281,9.313-14.531V127.997C511.994,57.307,454.687,0,383.997,0H128.004v95.998
	h95.998L255.999,127.997z"/>
<path style="fill:#BF2640;" d="M255.999,143.996H16.005c-8.837,0-16-7.163-16-16l0,0C0.006,57.307,57.311,0,128.003,0l0,0
	c70.69,0,127.997,57.306,127.997,127.997V143.996z"/>
<g>
</g>
<g>
</g>
<g>
</g>
<g>
</g>
<g>
</g>
<g>
</g>
<g>
</g>
<g>
</g>
<g>
</g>
<g>
</g>
<g>
</g>
<g>
</g>
<g>
</g>
<g>
</g>
<g>
</g>
</svg>
